<svg xmlns="http://www.w3.org/2000/svg" viewBox="0 0 14 14">
  <g id="Layer_2" data-name="Layer 2">
    <g id="grafika">
      <g>
        <path d="M10.21724,0H3.78276A3.78706,3.78706,0,0,0,0,3.78276v6.43448A3.78706,3.78706,0,0,0,3.78276,14h6.43448A3.78706,3.78706,0,0,0,14,10.21724V3.78276A3.78706,3.78706,0,0,0,10.21724,0ZM12.869,10.21724A2.6547,2.6547,0,0,1,10.21724,12.869H3.78276a2.6547,2.6547,0,0,1-2.65171-2.65171V3.78276A2.6547,2.6547,0,0,1,3.78276,1.13105h6.43448A2.6547,2.6547,0,0,1,12.869,3.78276Z" fill="#bcbcbd"/>
        <path d="M10.13321,6.51167a3.13883,3.13883,0,1,0-3.112,3.60043,3.18175,3.18175,0,0,0,.46711-.03459,3.13938,3.13938,0,0,0,2.64491-3.56584Zm-2.8108,2.447a2.00823,2.00823,0,1,1,1.692-2.28107A1.9946,1.9946,0,0,1,7.32241,8.95869Z" fill="#bcbcbd"/>
        <path d="M10.93884,3.06116a.56553.56553,0,1,0,.16565.3999A.56958.56958,0,0,0,10.93884,3.06116Z" fill="#bcbcbd"/>
      </g>
    </g>
  </g>
</svg>
