<svg xmlns="http://www.w3.org/2000/svg" viewBox="0 0 108.57071 24">
  <g id="Layer_2" data-name="Layer 2">
    <g id="grafika">
      <g>
        <path d="M59.78664,24c-4.37616,0-7.2039-2.86957-7.2039-7.311V11.58053c0-4.441,2.82774-7.31057,7.2039-7.31057h3.69058c4.37617,0,7.20391,2.86957,7.20391,7.31057V16.689c0,4.44147-2.82774,7.311-7.20391,7.311ZM59.822,8.13881c-2.05109,0-3.22723,1.25445-3.22723,3.44172V16.689c0,2.18727,1.17614,3.44219,3.22723,3.44219H63.4419c2.05109,0,3.22722-1.25492,3.22722-3.44219V11.58053c0-2.18727-1.17613-3.44172-3.22722-3.44172Z" fill="#e21a33"/>
        <path d="M44.11531,4.42566q-.2285-.01428-.457-.0144H40.46479A5.21534,5.21534,0,0,0,36.843,5.6011l-.31884.238V.53965A.53965.53965,0,0,0,35.98448,0H33.05153a.53964.53964,0,0,0-.53964.53965V16.7999a6.70448,6.70448,0,0,0,6.9535,7.0582h4.19292a6.70449,6.70449,0,0,0,6.95351-7.0582V11.46945A6.68084,6.68084,0,0,0,44.11531,4.42566ZM46.59969,16.7999a2.90851,2.90851,0,0,1-2.86992,3.18888H39.39393A2.90851,2.90851,0,0,1,36.524,16.7999V14.15459h.00012v-2.687c.00069-1.89771.93328-3.03945,2.5699-3.17261.10945-.00953.22379-.01441.338-.01441h4.25962c.11422,0,.22856.00488.338.01441,1.6372.13316,2.57,1.2756,2.57,3.17447Z" fill="#e21a33"/>
        <path d="M87.09669,5.15384a7.19478,7.19478,0,0,0-2.84133-.72832q-.22849-.01429-.45688-.01418H80.605a5.287,5.287,0,0,0-3.85514,1.52287l-.08564.07483V4.951a.53971.53971,0,0,0-.53967-.53962H73.19172a.53971.53971,0,0,0-.53967.53962V23.31849a.53971.53971,0,0,0,.53967.53961H76.1245a.53971.53971,0,0,0,.53967-.53961V11.46954a4.679,4.679,0,0,1,.06182-.795,2.60277,2.60277,0,0,1,2.5082-2.37969c.10946-.00953.22368-.01418.3379-.01418h4.25962c.11433,0,.22844.00465.3379.01418a2.60268,2.60268,0,0,1,2.5082,2.37969,4.67975,4.67975,0,0,1,.06193.795v11.849a.53971.53971,0,0,0,.53967.53961h2.93278a.53971.53971,0,0,0,.53967-.53961V11.46954A6.75255,6.75255,0,0,0,87.09669,5.15384Z" fill="#e21a33"/>
        <path d="M9.87831,23.858h3.10916a.53965.53965,0,0,0,.53965-.53964V20.38516a.53965.53965,0,0,0-.53965-.53965h-6.503A2.29349,2.29349,0,0,1,4.191,17.552V.53965A.53965.53965,0,0,0,3.6513,0H.53965A.53965.53965,0,0,0,0,.53965V14.70074a5.39645,5.39645,0,0,0,1.92765,4.1339L6.4095,22.59542A5.39643,5.39643,0,0,0,9.87831,23.858Z" fill="#e21a33"/>
        <path d="M23.58754,4.41126H15.99826a.53961.53961,0,0,0-.53962.53961V7.7411a.53962.53962,0,0,0,.53962.53962h7.62508A2.89876,2.89876,0,0,1,26.75,11.45907a10.26274,10.26274,0,0,0-3.16269-.47034H20.66051c-3.89311,0-6.31073,2.30811-6.31073,6.02053v.6806c0,3.80262,2.37476,6.16814,6.20127,6.16814l3.03629.0001a6.7045,6.7045,0,0,0,6.95353-7.05822v-5.3306A6.70435,6.70435,0,0,0,23.58754,4.41126Zm2.94133,13.00967a2.4071,2.4071,0,0,1-2.37515,2.63912H20.532a2.16917,2.16917,0,0,1-2.1702-2.17024V16.957a2.17341,2.17341,0,0,1,2.1702-2.1752h3.82655a2.17353,2.17353,0,0,1,2.17034,2.1752Z" fill="#e21a33"/>
        <path d="M99.2531,4.41128h-5.225a.53962.53962,0,0,0-.53962.53961V7.74112a.53962.53962,0,0,0,.53962.53962h7.62508a2.89871,2.89871,0,0,1,3.12669,3.17835,10.263,10.263,0,0,0-3.16269-.47034H98.69035c-3.89311,0-6.31068,2.30811-6.31068,6.02053v.68061c0,3.80261,2.37476,6.16813,6.20122,6.16813l3.03629.0001a6.7045,6.7045,0,0,0,6.95353-7.05822V13.102a5.3966,5.3966,0,0,0-1.92525-4.132l-3.921-3.29412A5.39655,5.39655,0,0,0,99.2531,4.41128ZM104.55871,17.421a2.40708,2.40708,0,0,1-2.37515,2.63913H98.56182a2.16914,2.16914,0,0,1-2.17015-2.17025V16.957a2.17337,2.17337,0,0,1,2.17015-2.1752h3.82655a2.17353,2.17353,0,0,1,2.17034,2.1752Z" fill="#e21a33"/>
      </g>
    </g>
  </g>
</svg>
