<svg xmlns="http://www.w3.org/2000/svg" viewBox="0 0 19.89311 14">
  <g id="Layer_2" data-name="Layer 2">
    <g id="grafika">
      <path d="M19.11773,1.2018C18.39965.34819,17.07387,0,14.54193,0H5.351C2.7611,0,1.41286.37065.69748,1.27945,0,2.16553,0,3.47109,0,5.278V8.722C0,12.22265.82755,14,5.351,14h9.191c2.19569,0,3.41237-.30725,4.1995-1.06056.80721-.77249,1.15162-2.03378,1.15162-4.2174V5.278C19.89311,3.37246,19.83914,2.05919,19.11773,1.2018ZM12.77144,7.47551,8.59787,9.65676a.6417.6417,0,0,1-.939-.56875V4.7395A.64172.64172,0,0,1,8.59639,4.17L12.77,6.33724a.64171.64171,0,0,1,.00148,1.13827Z" fill="#bcbcbd"/>
    </g>
  </g>
</svg>
